<mxfile host="app.diagrams.net" agent="Mozilla/5.0 (Windows NT 10.0; Win64; x64) AppleWebKit/537.36 (KHTML, like Gecko) Chrome/131.0.0.0 Safari/537.36" version="25.0.3">
  <diagram name="Page-1" id="O17B717kOUCj7BfmW2uv">
    <mxGraphModel dx="1562" dy="818" grid="1" gridSize="10" guides="1" tooltips="1" connect="1" arrows="1" fold="1" page="1" pageScale="1" pageWidth="1100" pageHeight="850" math="0" shadow="0">
      <root>
        <mxCell id="0" />
        <mxCell id="1" parent="0" />
        <mxCell id="3vi_h-vQ-hS7M-R32Vu_-11" value="" style="outlineConnect=0;dashed=0;verticalLabelPosition=bottom;verticalAlign=top;align=center;html=1;shape=mxgraph.aws3.internet_gateway;fillColor=#F58534;gradientColor=none;strokeColor=#147EBA;fontFamily=Helvetica;fontSize=12;fontColor=#147EBA;fontStyle=0;resizable=0;" parent="1" vertex="1">
          <mxGeometry x="900" y="308" width="69" height="72" as="geometry" />
        </mxCell>
        <mxCell id="3vi_h-vQ-hS7M-R32Vu_-1" value="rad-VPC&lt;span style=&quot;background-color: initial;&quot;&gt;&amp;nbsp;10.11.0.0/16&lt;/span&gt;" style="points=[[0,0],[0.25,0],[0.5,0],[0.75,0],[1,0],[1,0.25],[1,0.5],[1,0.75],[1,1],[0.75,1],[0.5,1],[0.25,1],[0,1],[0,0.75],[0,0.5],[0,0.25]];outlineConnect=0;gradientColor=none;html=1;whiteSpace=wrap;fontSize=12;fontStyle=0;container=1;pointerEvents=0;collapsible=0;recursiveResize=0;shape=mxgraph.aws4.group;grIcon=mxgraph.aws4.group_vpc2;strokeColor=#8C4FFF;fillColor=none;verticalAlign=top;align=left;spacingLeft=30;fontColor=#AAB7B8;dashed=0;movable=1;resizable=1;rotatable=1;deletable=1;editable=1;locked=0;connectable=1;" parent="1" vertex="1">
          <mxGeometry x="40" y="80" width="890" height="680" as="geometry" />
        </mxCell>
        <mxCell id="3vi_h-vQ-hS7M-R32Vu_-2" value="Availability Zone A&lt;div&gt;&lt;br&gt;&lt;/div&gt;" style="fillColor=none;strokeColor=#147EBA;dashed=1;verticalAlign=top;fontStyle=0;fontColor=#147EBA;whiteSpace=wrap;html=1;movable=1;resizable=1;rotatable=1;deletable=1;editable=1;locked=0;connectable=1;" parent="3vi_h-vQ-hS7M-R32Vu_-1" vertex="1">
          <mxGeometry x="40" y="40" width="800" height="200" as="geometry" />
        </mxCell>
        <mxCell id="3vi_h-vQ-hS7M-R32Vu_-3" value="Availability Zone B" style="fillColor=none;strokeColor=#147EBA;dashed=1;verticalAlign=top;fontStyle=0;fontColor=#147EBA;whiteSpace=wrap;html=1;movable=1;resizable=1;rotatable=1;deletable=1;editable=1;locked=0;connectable=1;" parent="3vi_h-vQ-hS7M-R32Vu_-1" vertex="1">
          <mxGeometry x="40" y="280" width="800" height="200" as="geometry" />
        </mxCell>
        <mxCell id="3vi_h-vQ-hS7M-R32Vu_-5" value="sn-rad-app-a 10.11.2.0/24" style="points=[[0,0,0,0,0],[0,0.25,0,0,0],[0,0.5,0,0,0],[0,0.75,0,0,0],[0,1,0,0,0],[0.25,0,0,0,0],[0.25,1,0,0,0],[0.5,0,0,0,0],[0.5,1,0,0,0],[0.75,0,0,0,0],[0.75,1,0,0,0],[1,0,0,0,0],[1,0.25,0,0,0],[1,0.5,0,0,0],[1,0.75,0,0,0],[1,1,0,0,0]];outlineConnect=0;gradientColor=none;html=1;whiteSpace=wrap;fontSize=12;fontStyle=0;container=1;pointerEvents=0;collapsible=0;recursiveResize=0;shape=mxgraph.aws4.group;grIcon=mxgraph.aws4.group_security_group;grStroke=0;strokeColor=#00A4A6;fillColor=#E6F6F7;verticalAlign=top;align=left;spacingLeft=30;fontColor=#147EBA;dashed=0;" parent="3vi_h-vQ-hS7M-R32Vu_-1" vertex="1">
          <mxGeometry x="80" y="80" width="280" height="130" as="geometry" />
        </mxCell>
        <mxCell id="3vi_h-vQ-hS7M-R32Vu_-6" value="sn-rad-alb 10.11.1.0/24" style="points=[[0,0],[0.25,0],[0.5,0],[0.75,0],[1,0],[1,0.25],[1,0.5],[1,0.75],[1,1],[0.75,1],[0.5,1],[0.25,1],[0,1],[0,0.75],[0,0.5],[0,0.25]];outlineConnect=0;gradientColor=none;html=1;whiteSpace=wrap;fontSize=12;fontStyle=0;container=1;pointerEvents=0;collapsible=0;recursiveResize=0;shape=mxgraph.aws4.group;grIcon=mxgraph.aws4.group_security_group;grStroke=0;strokeColor=#00A4A6;fillColor=#E6F6F7;verticalAlign=top;align=left;spacingLeft=30;fontColor=#147EBA;dashed=0;" parent="3vi_h-vQ-hS7M-R32Vu_-1" vertex="1">
          <mxGeometry x="520" y="320" width="280" height="130" as="geometry" />
        </mxCell>
        <mxCell id="3vi_h-vQ-hS7M-R32Vu_-7" value="sn-rad-app-b 10.11.3.0/24" style="points=[[0,0],[0.25,0],[0.5,0],[0.75,0],[1,0],[1,0.25],[1,0.5],[1,0.75],[1,1],[0.75,1],[0.5,1],[0.25,1],[0,1],[0,0.75],[0,0.5],[0,0.25]];outlineConnect=0;gradientColor=none;html=1;whiteSpace=wrap;fontSize=12;fontStyle=0;container=1;pointerEvents=0;collapsible=0;recursiveResize=0;shape=mxgraph.aws4.group;grIcon=mxgraph.aws4.group_security_group;grStroke=0;strokeColor=#00A4A6;fillColor=#E6F6F7;verticalAlign=top;align=left;spacingLeft=30;fontColor=#147EBA;dashed=0;" parent="3vi_h-vQ-hS7M-R32Vu_-1" vertex="1">
          <mxGeometry x="80" y="320" width="280" height="130" as="geometry" />
        </mxCell>
        <mxCell id="ro0u88Dda8euJjsD8SuP-7" value="" style="sketch=0;outlineConnect=0;fontColor=#232F3E;gradientColor=none;fillColor=#8C4FFF;strokeColor=none;dashed=0;verticalLabelPosition=bottom;verticalAlign=top;align=center;html=1;fontSize=12;fontStyle=0;aspect=fixed;pointerEvents=1;shape=mxgraph.aws4.route_table;" vertex="1" parent="3vi_h-vQ-hS7M-R32Vu_-7">
          <mxGeometry x="232" y="2" width="48" height="46.77" as="geometry" />
        </mxCell>
        <mxCell id="3vi_h-vQ-hS7M-R32Vu_-4" value="sn-rad-ngw 10.11.0.0/24" style="points=[[0,0],[0.25,0],[0.5,0],[0.75,0],[1,0],[1,0.25],[1,0.5],[1,0.75],[1,1],[0.75,1],[0.5,1],[0.25,1],[0,1],[0,0.75],[0,0.5],[0,0.25]];outlineConnect=0;gradientColor=none;html=1;whiteSpace=wrap;fontSize=12;fontStyle=0;container=1;pointerEvents=0;collapsible=0;recursiveResize=0;shape=mxgraph.aws4.group;grIcon=mxgraph.aws4.group_security_group;grStroke=0;strokeColor=#7AA116;fillColor=#F2F6E8;verticalAlign=top;align=left;spacingLeft=30;fontColor=#248814;dashed=0;movable=1;resizable=1;rotatable=1;deletable=1;editable=1;locked=0;connectable=1;" parent="3vi_h-vQ-hS7M-R32Vu_-1" vertex="1">
          <mxGeometry x="520" y="80" width="280" height="130" as="geometry" />
        </mxCell>
        <mxCell id="3vi_h-vQ-hS7M-R32Vu_-9" value="" style="sketch=0;outlineConnect=0;fontColor=#232F3E;gradientColor=none;fillColor=#ED7100;strokeColor=none;dashed=0;verticalLabelPosition=bottom;verticalAlign=top;align=center;html=1;fontSize=12;fontStyle=0;aspect=fixed;pointerEvents=1;shape=mxgraph.aws4.elastic_ip_address;fontFamily=Helvetica;resizable=0;" parent="3vi_h-vQ-hS7M-R32Vu_-1" vertex="1">
          <mxGeometry x="780" y="140" width="48" height="20" as="geometry" />
        </mxCell>
        <mxCell id="3vi_h-vQ-hS7M-R32Vu_-8" value="" style="sketch=0;outlineConnect=0;fontColor=#232F3E;gradientColor=none;fillColor=#8C4FFF;strokeColor=none;dashed=0;verticalLabelPosition=bottom;verticalAlign=top;align=center;html=1;fontSize=12;fontStyle=0;aspect=fixed;pointerEvents=1;shape=mxgraph.aws4.nat_gateway;fontFamily=Helvetica;resizable=0;" parent="3vi_h-vQ-hS7M-R32Vu_-1" vertex="1">
          <mxGeometry x="650" y="110" width="78" height="78" as="geometry" />
        </mxCell>
        <mxCell id="ro0u88Dda8euJjsD8SuP-1" value="EIP" style="text;html=1;align=center;verticalAlign=middle;whiteSpace=wrap;rounded=0;" vertex="1" parent="3vi_h-vQ-hS7M-R32Vu_-1">
          <mxGeometry x="760" y="120" width="60" height="30" as="geometry" />
        </mxCell>
        <mxCell id="ro0u88Dda8euJjsD8SuP-2" value="Public IP assoiated" style="text;html=1;align=center;verticalAlign=middle;whiteSpace=wrap;rounded=0;" vertex="1" parent="3vi_h-vQ-hS7M-R32Vu_-1">
          <mxGeometry x="507" y="60" width="130" height="30" as="geometry" />
        </mxCell>
        <mxCell id="ro0u88Dda8euJjsD8SuP-3" style="edgeStyle=orthogonalEdgeStyle;rounded=0;orthogonalLoop=1;jettySize=auto;html=1;exitX=1;exitY=0.75;exitDx=0;exitDy=0;entryX=1;entryY=0.5;entryDx=0;entryDy=0;" edge="1" parent="3vi_h-vQ-hS7M-R32Vu_-1" source="ro0u88Dda8euJjsD8SuP-2" target="ro0u88Dda8euJjsD8SuP-2">
          <mxGeometry relative="1" as="geometry" />
        </mxCell>
        <mxCell id="ro0u88Dda8euJjsD8SuP-4" value="" style="sketch=0;outlineConnect=0;fontColor=#232F3E;gradientColor=none;fillColor=#8C4FFF;strokeColor=none;dashed=0;verticalLabelPosition=bottom;verticalAlign=top;align=center;html=1;fontSize=12;fontStyle=0;aspect=fixed;pointerEvents=1;shape=mxgraph.aws4.route_table;" vertex="1" parent="3vi_h-vQ-hS7M-R32Vu_-1">
          <mxGeometry x="312" y="130.00000000000003" width="48" height="46.77" as="geometry" />
        </mxCell>
        <mxCell id="ro0u88Dda8euJjsD8SuP-5" value="" style="endArrow=none;html=1;rounded=0;" edge="1" parent="3vi_h-vQ-hS7M-R32Vu_-1" source="3vi_h-vQ-hS7M-R32Vu_-8">
          <mxGeometry width="50" height="50" relative="1" as="geometry">
            <mxPoint x="380" y="160" as="sourcePoint" />
            <mxPoint x="360" y="150" as="targetPoint" />
            <Array as="points">
              <mxPoint x="360" y="150" />
            </Array>
          </mxGeometry>
        </mxCell>
        <mxCell id="ro0u88Dda8euJjsD8SuP-6" value="" style="endArrow=none;html=1;rounded=0;" edge="1" parent="3vi_h-vQ-hS7M-R32Vu_-1" source="3vi_h-vQ-hS7M-R32Vu_-7" target="3vi_h-vQ-hS7M-R32Vu_-8">
          <mxGeometry width="50" height="50" relative="1" as="geometry">
            <mxPoint x="570" y="350" as="sourcePoint" />
            <mxPoint x="610" y="310" as="targetPoint" />
          </mxGeometry>
        </mxCell>
        <mxCell id="3vi_h-vQ-hS7M-R32Vu_-12" style="edgeStyle=orthogonalEdgeStyle;rounded=0;orthogonalLoop=1;jettySize=auto;html=1;exitX=0;exitY=0.5;exitDx=0;exitDy=0;exitPerimeter=0;entryX=0.867;entryY=0.387;entryDx=0;entryDy=0;entryPerimeter=0;fontFamily=Helvetica;fontSize=12;fontColor=#147EBA;fontStyle=0;resizable=0;" parent="1" source="3vi_h-vQ-hS7M-R32Vu_-11" target="3vi_h-vQ-hS7M-R32Vu_-9" edge="1">
          <mxGeometry relative="1" as="geometry">
            <Array as="points">
              <mxPoint x="900" y="228" />
            </Array>
          </mxGeometry>
        </mxCell>
      </root>
    </mxGraphModel>
  </diagram>
</mxfile>
